<?xml version="1.0" encoding="utf-8"?>
<!-- Generator: Adobe Illustrator 16.0.0, SVG Export Plug-In . SVG Version: 6.00 Build 0)  -->
<!DOCTYPE svg PUBLIC "-//W3C//DTD SVG 1.1//EN" "http://www.w3.org/Graphics/SVG/1.1/DTD/svg11.dtd">
<svg version="1.1" id="Layer_1" xmlns="http://www.w3.org/2000/svg" xmlns:xlink="http://www.w3.org/1999/xlink" x="0px" y="0px"
	 width="165.316px" height="103.174px" viewBox="0 0 165.316 103.174" enable-background="new 0 0 165.316 103.174"
	 xml:space="preserve">
<g id="TD_logo_2_1_">
	<g id="TD_logo_3_">
		<path fill="#FFFFFF" d="M100.283,14.494c0.583,2.406,0.759,5.095,0.479,7.971c-0.161,1.637-0.468,3.333-0.935,5.073
			c-3.531,13.179-14.827,23.921-25.505,24.436c-0.266,0.012-0.53,0.021-0.795,0.021c-2.798,0-5.266-0.722-7.329-2.021
			c-3.051-1.923-5.216-5.109-6.246-9.105c0.516,4.817,2.261,8.895,5,11.776c1.917,2.019,4.32,3.451,7.128,4.14
			c1.242,0.305,2.563,0.465,3.955,0.465c12.506,0,26.077-12.817,30.313-28.625c0.565-2.114,0.935-4.174,1.123-6.159
			c0.268-2.838,0.16-5.518-0.286-7.971C105.611,5.838,99.815,0,91.375,0c-5.949,0-12.136,2.901-17.448,7.641
			c4.007-2.87,8.426-4.561,12.708-4.561C93.669,3.08,98.622,7.635,100.283,14.494z"/>
		<path fill="#FFFFFF" d="M67.795,14.494c-1.761,2.453-3.304,5.133-4.556,7.971h15.786L66.199,49.972
			c2.063,1.3,4.531,2.021,7.329,2.021c0.265,0,0.529-0.008,0.795-0.021l13.761-29.508h12.677c0.28-2.875,0.104-5.565-0.479-7.971
			L67.795,14.494L67.795,14.494z"/>
	</g>
	<g id="www.tandan_1_">
		<path fill="#FFFFFF" d="M28.677,101.425L30,96.168h1.175l-2.002,6.879H28.22l-1.673-5.214l-1.627,5.214h-0.954l-1.995-6.879h1.17
			l1.353,5.149l1.603-5.149h0.946L28.677,101.425z"/>
		<path fill="#FFFFFF" d="M38.459,101.425l1.323-5.257h1.176l-2.003,6.879h-0.953l-1.672-5.214l-1.628,5.214H33.75l-1.997-6.879
			h1.17l1.354,5.149l1.602-5.149h0.946L38.459,101.425z"/>
		<path fill="#FFFFFF" d="M48.243,101.425l1.322-5.257h1.176l-2.002,6.879h-0.954l-1.672-5.214l-1.627,5.214h-0.953l-1.996-6.879
			h1.168l1.354,5.149l1.603-5.149h0.947L48.243,101.425z"/>
		<path fill="#FFFFFF" d="M51.173,102.431c0-0.203,0.061-0.373,0.182-0.51c0.122-0.135,0.302-0.202,0.543-0.202
			c0.243,0,0.425,0.067,0.55,0.202c0.125,0.137,0.187,0.307,0.187,0.51c0,0.194-0.061,0.356-0.187,0.489
			c-0.125,0.132-0.308,0.197-0.55,0.197c-0.241,0-0.422-0.065-0.543-0.197C51.233,102.787,51.173,102.625,51.173,102.431z"/>
		<path fill="#FFFFFF" d="M56.169,94.503v1.666h1.284v0.909h-1.284v4.271c0,0.276,0.058,0.482,0.171,0.62
			c0.115,0.138,0.311,0.207,0.586,0.207c0.136,0,0.321-0.024,0.56-0.077v0.949c-0.31,0.083-0.61,0.126-0.902,0.126
			c-0.525,0-0.922-0.159-1.189-0.476c-0.268-0.319-0.4-0.771-0.4-1.355v-4.266h-1.252v-0.909h1.252v-1.666L56.169,94.503
			L56.169,94.503z"/>
		<path fill="#FFFFFF" d="M63.072,103.047c-0.067-0.137-0.123-0.378-0.165-0.726c-0.547,0.568-1.199,0.853-1.958,0.853
			c-0.678,0-1.233-0.192-1.669-0.575c-0.434-0.383-0.652-0.869-0.652-1.459c0-0.716,0.273-1.271,0.817-1.668
			c0.544-0.396,1.311-0.594,2.298-0.594h1.145v-0.541c0-0.411-0.123-0.736-0.368-0.982c-0.246-0.244-0.609-0.364-1.087-0.364
			c-0.42,0-0.771,0.104-1.057,0.317c-0.283,0.211-0.426,0.467-0.426,0.77h-1.18c0-0.344,0.121-0.676,0.364-0.994
			c0.244-0.321,0.575-0.573,0.992-0.761c0.417-0.187,0.876-0.28,1.376-0.28c0.793,0,1.414,0.198,1.863,0.595
			c0.448,0.396,0.682,0.942,0.699,1.638v3.166c0,0.632,0.081,1.133,0.242,1.506v0.103h-1.235V103.047z M61.121,102.149
			c0.369,0,0.719-0.094,1.05-0.285c0.33-0.19,0.569-0.438,0.719-0.744v-1.41h-0.923c-1.44,0-2.16,0.421-2.16,1.266
			c0,0.368,0.123,0.656,0.367,0.864C60.419,102.045,60.736,102.149,61.121,102.149z"/>
		<path fill="#FFFFFF" d="M67.021,96.168l0.038,0.865c0.524-0.661,1.212-0.992,2.059-0.992c1.454,0,2.188,0.821,2.199,2.461v4.545
			h-1.175v-4.552c-0.004-0.497-0.117-0.863-0.341-1.1c-0.221-0.238-0.568-0.357-1.038-0.357c-0.383,0-0.717,0.102-1.005,0.306
			c-0.287,0.203-0.512,0.47-0.674,0.802v4.9h-1.176v-6.879L67.021,96.168L67.021,96.168z"/>
		<path fill="#FFFFFF" d="M72.805,99.55c0-1.055,0.25-1.904,0.75-2.545c0.501-0.643,1.154-0.964,1.964-0.964
			c0.805,0,1.442,0.274,1.913,0.827v-3.585h1.177v9.765h-1.081l-0.057-0.738c-0.471,0.576-1.125,0.864-1.965,0.864
			c-0.797,0-1.445-0.327-1.947-0.979c-0.503-0.652-0.754-1.504-0.754-2.555V99.55z M73.981,99.685c0,0.779,0.162,1.39,0.482,1.83
			c0.322,0.44,0.768,0.66,1.334,0.66c0.746,0,1.291-0.334,1.634-1.004v-3.158c-0.353-0.649-0.892-0.974-1.621-0.974
			c-0.576,0-1.025,0.222-1.348,0.667C74.143,98.151,73.981,98.81,73.981,99.685z"/>
		<path fill="#FFFFFF" d="M84.679,103.047c-0.067-0.137-0.123-0.378-0.166-0.726c-0.547,0.568-1.199,0.853-1.958,0.853
			c-0.678,0-1.233-0.192-1.667-0.575c-0.437-0.383-0.652-0.869-0.652-1.459c0-0.716,0.271-1.271,0.817-1.668
			c0.544-0.396,1.311-0.594,2.298-0.594h1.145v-0.541c0-0.411-0.124-0.736-0.369-0.982c-0.246-0.244-0.607-0.364-1.087-0.364
			c-0.42,0-0.771,0.104-1.055,0.317c-0.284,0.211-0.425,0.467-0.425,0.77h-1.183c0-0.344,0.121-0.676,0.364-0.994
			c0.245-0.321,0.574-0.573,0.992-0.761c0.417-0.187,0.876-0.28,1.377-0.28c0.792,0,1.412,0.198,1.861,0.595
			s0.683,0.942,0.698,1.638v3.166c0,0.632,0.081,1.133,0.243,1.506v0.103h-1.234V103.047z M82.728,102.149
			c0.369,0,0.718-0.094,1.049-0.285c0.33-0.19,0.569-0.438,0.718-0.744v-1.41h-0.921c-1.441,0-2.162,0.421-2.162,1.266
			c0,0.368,0.123,0.656,0.369,0.864C82.026,102.045,82.342,102.149,82.728,102.149z"/>
		<path fill="#FFFFFF" d="M88.627,96.168l0.038,0.865c0.525-0.661,1.212-0.992,2.061-0.992c1.453,0,2.187,0.821,2.198,2.461v4.545
			h-1.176v-4.552c-0.004-0.497-0.118-0.863-0.34-1.1c-0.223-0.238-0.568-0.357-1.038-0.357c-0.382,0-0.717,0.102-1.005,0.306
			c-0.288,0.203-0.512,0.47-0.673,0.802v4.9h-1.176v-6.879L88.627,96.168L88.627,96.168z"/>
		<path fill="#FFFFFF" d="M94.723,102.431c0-0.203,0.062-0.373,0.182-0.51c0.12-0.135,0.301-0.202,0.543-0.202
			c0.241,0,0.424,0.067,0.55,0.202c0.125,0.137,0.188,0.307,0.188,0.51c0,0.194-0.063,0.356-0.188,0.489
			c-0.126,0.132-0.309,0.197-0.55,0.197c-0.242,0-0.423-0.065-0.543-0.197C94.784,102.787,94.723,102.625,94.723,102.431z"/>
		<path fill="#FFFFFF" d="M100.882,102.213c0.419,0,0.786-0.127,1.101-0.381c0.313-0.254,0.488-0.571,0.521-0.954h1.113
			c-0.021,0.395-0.156,0.77-0.407,1.125c-0.25,0.355-0.583,0.641-1.001,0.852s-0.858,0.318-1.326,0.318
			c-0.936,0-1.681-0.313-2.233-0.938c-0.555-0.625-0.83-1.48-0.83-2.565v-0.196c0-0.67,0.123-1.265,0.368-1.785
			c0.246-0.521,0.598-0.927,1.059-1.215c0.459-0.287,1.003-0.433,1.631-0.433c0.771,0,1.412,0.231,1.923,0.692
			c0.511,0.463,0.783,1.063,0.817,1.801h-1.113c-0.032-0.445-0.202-0.811-0.504-1.098c-0.302-0.285-0.678-0.429-1.122-0.429
			c-0.598,0-1.061,0.216-1.389,0.646c-0.329,0.43-0.493,1.052-0.493,1.865v0.223c0,0.793,0.164,1.404,0.49,1.831
			C99.811,102,100.277,102.213,100.882,102.213z"/>
		<path fill="#FFFFFF" d="M104.626,99.544c0-0.674,0.133-1.279,0.398-1.818c0.264-0.539,0.633-0.953,1.104-1.246
			c0.474-0.291,1.013-0.438,1.618-0.438c0.938,0,1.694,0.325,2.273,0.974s0.868,1.51,0.868,2.588v0.082
			c0,0.67-0.129,1.271-0.385,1.801c-0.257,0.533-0.624,0.947-1.101,1.244c-0.478,0.297-1.024,0.445-1.645,0.445
			c-0.932,0-1.687-0.324-2.266-0.973c-0.578-0.646-0.868-1.506-0.868-2.574L104.626,99.544L104.626,99.544z M105.809,99.685
			c0,0.762,0.177,1.375,0.529,1.836c0.354,0.461,0.828,0.692,1.42,0.692c0.6,0,1.073-0.233,1.425-0.702
			c0.352-0.468,0.527-1.124,0.527-1.967c0-0.754-0.179-1.365-0.538-1.834c-0.357-0.468-0.833-0.702-1.427-0.702
			c-0.581,0-1.049,0.229-1.404,0.692C105.987,98.163,105.809,98.824,105.809,99.685z"/>
		<path fill="#FFFFFF" d="M113.469,96.168l0.032,0.765c0.504-0.596,1.185-0.892,2.04-0.892c0.962,0,1.617,0.369,1.964,1.106
			c0.229-0.332,0.527-0.599,0.894-0.801c0.367-0.205,0.801-0.307,1.3-0.307c1.509,0,2.277,0.799,2.301,2.396v4.609h-1.175v-4.54
			c0-0.491-0.112-0.858-0.337-1.103s-0.603-0.366-1.131-0.366c-0.437,0-0.799,0.13-1.087,0.392c-0.288,0.26-0.455,0.611-0.501,1.053
			v4.564h-1.185V98.54c0-1-0.487-1.5-1.468-1.5c-0.771,0-1.3,0.328-1.583,0.986v5.021h-1.175v-6.879L113.469,96.168L113.469,96.168z
			"/>
		<path fill="#FFFFFF" d="M123.798,102.431c0-0.203,0.062-0.373,0.182-0.51c0.121-0.135,0.303-0.202,0.543-0.202
			c0.241,0,0.425,0.067,0.55,0.202c0.125,0.137,0.188,0.307,0.188,0.51c0,0.194-0.063,0.356-0.188,0.489
			c-0.125,0.132-0.309,0.197-0.55,0.197s-0.423-0.065-0.543-0.197C123.859,102.787,123.798,102.625,123.798,102.431z"/>
		<path fill="#FFFFFF" d="M129.469,101.451l1.702-5.282h1.202l-2.467,6.879h-0.896l-2.491-6.879h1.202L129.469,101.451z"/>
		<path fill="#FFFFFF" d="M134.618,96.168l0.039,0.865c0.525-0.661,1.211-0.992,2.059-0.992c1.453,0,2.188,0.821,2.199,2.461v4.545
			h-1.176v-4.552c-0.004-0.497-0.118-0.863-0.339-1.1c-0.224-0.238-0.569-0.357-1.04-0.357c-0.381,0-0.715,0.102-1.004,0.306
			c-0.288,0.203-0.514,0.47-0.674,0.802v4.9h-1.176v-6.879L134.618,96.168L134.618,96.168z"/>
	</g>
	<g id="Tandan_JSC_1_">
		<path fill="#FFFFFF" d="M14.136,73.508H8.82v14.458H5.245V73.508H0v-2.896h14.137V73.508z"/>
		<path fill="#FFFFFF" d="M24.541,84.39h-6.269l-1.191,3.576h-3.802l6.459-17.354h3.313l6.496,17.354h-3.802L24.541,84.39z
			 M19.237,81.494h4.338l-2.181-6.496L19.237,81.494z"/>
		<path fill="#FFFFFF" d="M45.279,87.966h-3.576l-6.96-11.418v11.418h-3.575V70.612h3.575l6.973,11.443V70.612h3.563V87.966z"/>
		<path fill="#FFFFFF" d="M54.626,87.966V70.612h5.339c1.526,0,2.891,0.344,4.096,1.031c1.203,0.688,2.143,1.664,2.817,2.932
			c0.677,1.268,1.014,2.708,1.014,4.32v0.799c0,1.613-0.331,3.047-0.995,4.302s-1.6,2.229-2.807,2.92
			c-1.208,0.69-2.57,1.04-4.088,1.048h-5.376V87.966z M58.202,73.508v11.586h1.729c1.398,0,2.468-0.458,3.207-1.372
			c0.738-0.914,1.115-2.221,1.132-3.921v-0.918c0-1.765-0.366-3.102-1.097-4.011c-0.731-0.91-1.8-1.365-3.207-1.365L58.202,73.508
			L58.202,73.508z"/>
		<path fill="#FFFFFF" d="M80.037,84.39h-6.27l-1.191,3.576h-3.802l6.459-17.354h3.313l6.495,17.354H81.24L80.037,84.39z
			 M74.733,81.494h4.338l-2.182-6.496L74.733,81.494z"/>
		<path fill="#FFFFFF" d="M100.776,87.966h-3.577l-6.96-11.418v11.418h-3.576V70.612h3.576l6.973,11.443V70.612h3.564V87.966z"/>
		<path fill="#FFFFFF" d="M103.851,86.272c0-0.547,0.185-0.992,0.553-1.334c0.37-0.342,0.833-0.514,1.389-0.514
			c0.564,0,1.031,0.172,1.4,0.514c0.37,0.342,0.555,0.787,0.555,1.334c0,0.541-0.183,0.979-0.549,1.317
			c-0.365,0.338-0.833,0.507-1.406,0.507c-0.563,0-1.028-0.168-1.394-0.507C104.034,87.253,103.851,86.813,103.851,86.272z"/>
		<path fill="#FFFFFF" d="M111.657,92.315l-1.8-0.94l0.429-0.774c0.532-0.971,0.806-1.936,0.823-2.896v-2.67h2.909l-0.014,2.384
			c-0.008,0.881-0.23,1.772-0.667,2.669C112.901,90.985,112.341,91.729,111.657,92.315z"/>
		<path fill="#FFFFFF" d="M130.024,70.612h3.576v12.015c0,1.104-0.244,2.079-0.733,2.925c-0.488,0.846-1.179,1.5-2.067,1.961
			c-0.89,0.461-1.895,0.692-3.016,0.692c-1.835,0-3.266-0.468-4.291-1.401c-1.025-0.933-1.537-2.254-1.537-3.962h3.601
			c0,0.851,0.179,1.478,0.535,1.884c0.357,0.403,0.923,0.606,1.692,0.606c0.684,0,1.229-0.233,1.633-0.703
			c0.406-0.468,0.608-1.136,0.608-2.001L130.024,70.612L130.024,70.612z"/>
		<path fill="#FFFFFF" d="M145.662,83.413c0-0.676-0.238-1.194-0.715-1.557c-0.477-0.36-1.335-0.741-2.575-1.143
			c-1.239-0.402-2.22-0.796-2.943-1.188c-1.972-1.063-2.956-2.498-2.956-4.301c0-0.938,0.264-1.774,0.792-2.51
			c0.527-0.734,1.286-1.309,2.275-1.722s2.101-0.62,3.332-0.62c1.239,0,2.343,0.225,3.313,0.673c0.97,0.45,1.722,1.083,2.259,1.9
			c0.536,0.819,0.804,1.749,0.804,2.79h-3.576c0-0.795-0.25-1.412-0.751-1.854s-1.204-0.662-2.109-0.662
			c-0.874,0-1.554,0.187-2.038,0.555c-0.485,0.367-0.728,0.855-0.728,1.459c0,0.564,0.283,1.037,0.853,1.418
			c0.567,0.382,1.405,0.738,2.51,1.074c2.034,0.61,3.515,1.369,4.445,2.275c0.93,0.906,1.395,2.035,1.395,3.385
			c0,1.502-0.567,2.68-1.705,3.534c-1.136,0.854-2.666,1.282-4.589,1.282c-1.334,0-2.551-0.245-3.646-0.734
			c-1.099-0.488-1.934-1.158-2.51-2.008s-0.864-1.836-0.864-2.957h3.589c0,1.915,1.144,2.874,3.431,2.874
			c0.852,0,1.516-0.173,1.991-0.519C145.423,84.517,145.662,84.033,145.662,83.413z"/>
		<path fill="#FFFFFF" d="M165.292,82.187c-0.136,1.866-0.825,3.336-2.067,4.41c-1.244,1.071-2.883,1.608-4.917,1.608
			c-2.225,0-3.976-0.749-5.25-2.247c-1.275-1.497-1.913-3.553-1.913-6.168v-1.061c0-1.67,0.294-3.139,0.882-4.41
			s1.428-2.247,2.521-2.928c1.093-0.678,2.361-1.019,3.809-1.019c2.002,0,3.616,0.537,4.839,1.608
			c1.223,1.072,1.93,2.578,2.122,4.518h-3.576c-0.088-1.12-0.399-1.934-0.936-2.438s-1.354-0.756-2.449-0.756
			c-1.192,0-2.084,0.426-2.676,1.281c-0.592,0.854-0.896,2.178-0.912,3.975v1.312c0,1.875,0.282,3.247,0.853,4.11
			c0.567,0.867,1.464,1.3,2.688,1.3c1.104,0,1.929-0.252,2.473-0.757c0.545-0.504,0.856-1.285,0.935-2.342h3.576V82.187z"/>
	</g>
</g>
</svg>
